o floor
usemtl floor
v -7.0 0.0 -7.0
v 7.0 0.0 -7.0
v 7.0 0.0 7.0
v -7.0 0.0 7.0
vt 0.0 0.0
vt 4.0 0.0
vt 4.0 4.0
vt 0.0 4.0
vn 0.0 1.0 0.0
f 1/1/1 4/4/1 3/3/1 2/2/1

o wall_back
usemtl wall
v -7.0 0.0 -7.0
v 7.0 0.0 -7.0
v 7.0 4.0 -7.0
v -7.0 4.0 -7.0
vt 0.0 0.0
vt 4.0 0.0
vt 4.0 2.0
vt 0.0 2.0
vn 0.0 0.0 1.0
f 5/5/2 6/6/2 7/7/2 8/8/2

o wall_left
usemtl wall
v -7.0 0.0 7.0
v -7.0 0.0 -7.0
v -7.0 4.0 -7.0
v -7.0 4.0 7.0
vt 0.0 0.0
vt 4.0 0.0
vt 4.0 2.0
vt 0.0 2.0
vn 1.0 0.0 0.0
f 9/9/3 10/10/3 11/11/3 12/12/3

o wall_right
usemtl wall
v 7.0 0.0 -7.0
v 7.0 0.0 7.0
v 7.0 4.0 7.0
v 7.0 4.0 -7.0
vt 0.0 0.0
vt 4.0 0.0
vt 4.0 2.0
vt 0.0 2.0
vn -1.0 0.0 0.0
f 13/13/4 14/14/4 15/15/4 16/16/4

o pillar
usemtl accent
v -3.0 0.0 -1.0
v -1.8 0.0 -1.0
v -1.8 2.6 -1.0
v -3.0 2.6 -1.0
v -3.0 0.0 0.2
v -1.8 0.0 0.2
v -1.8 2.6 0.2
v -3.0 2.6 0.2
vt 0.0 0.0
vt 1.0 0.0
vt 1.0 1.0
vt 0.0 1.0
f 17/17 18/18 19/19 20/20
f 22/18 21/17 24/20 23/19
f 21/17 17/18 20/19 24/20
f 18/17 22/18 23/19 19/20
f 20/17 19/18 23/19 24/20
f 21/17 22/18 18/19 17/20

o floor_col
usemtl collision
v -7.0 0.0 -7.0
v 7.0 0.0 -7.0
v 7.0 0.0 7.0
v -7.0 0.0 7.0
f 25 28 27 26

o door_trigger
usemtl trigger
v -1.2 0.0 6.8
v 1.2 0.0 6.8
v 1.2 2.2 6.8
v -1.2 2.2 6.8
f 29 30 31 32
